<svg width="50" height="50" viewBox="0 0 50 50" fill="none" xmlns="http://www.w3.org/2000/svg">
<circle cx="25" cy="25" r="22.0588" fill="white"/>
<circle cx="25" cy="25" r="25" fill="#059669"/>
<circle cx="25.0001" cy="25" r="22.0784" fill="#059669" stroke="white" stroke-width="2"/>
<path d="M25.7917 14.5519C26.2674 14.6873 26.566 14.9181 26.9304 15.4297C27.2694 15.9113 27.3605 15.9865 27.7755 16.1571C28.393 16.4129 28.7675 16.8694 29.4507 18.2188C29.972 19.2472 29.9112 19.192 30.225 18.9362C30.64 18.595 31.2017 17.9529 32.0621 16.8493C32.4214 16.3878 32.6593 16.132 32.8415 16.0116C33.8385 15.3595 35.0986 15.9514 35.4327 17.2256C35.5288 17.5968 35.5288 18.3743 35.4276 18.896C35.1341 20.436 34.0915 22.2971 32.8971 23.4107C32.4619 23.812 32.0419 24.0227 31.2524 24.2234L30.6552 24.3789L30.6299 24.6849C30.6147 24.8504 30.5641 25.4223 30.5236 25.954C30.478 26.4807 30.3971 27.2131 30.3465 27.5793L30.2554 28.2415L30.4376 28.4622C30.6754 28.7431 31.1562 29.1244 32.0317 29.7213C32.4164 29.9822 32.8668 30.3183 33.0287 30.4687C34.0055 31.3617 34.5521 32.696 34.6786 34.4768C34.7798 35.9667 34.1067 36.9047 32.9326 36.9047C32.5226 36.9047 32.1633 36.8044 31.6876 36.5636C31.4042 36.4181 31.1511 36.2024 30.3971 35.4751C29.4254 34.537 29.1369 34.3012 28.6915 34.0755C28.2108 33.8347 27.4921 33.7244 27.2441 33.8498C27.1834 33.8799 26.8696 34.1758 26.5508 34.5019C25.8372 35.2293 25.574 35.3747 24.9819 35.3747C24.4202 35.3747 24.1165 35.1941 23.4282 34.4668C23.1347 34.1558 22.831 33.8748 22.745 33.8397C22.5375 33.7545 21.9504 33.8197 21.581 33.9651C21.0041 34.1959 20.7156 34.4166 19.6933 35.4048C18.7874 36.2777 18.6254 36.4131 18.261 36.5937C16.8491 37.291 15.6294 36.7793 15.3612 35.3697C15.2397 34.7276 15.4168 33.318 15.7357 32.395C16.1102 31.3015 16.758 30.5289 17.9979 29.6962C19.167 28.9087 19.8097 28.3318 19.749 28.1311C19.673 27.8803 19.4908 26.1898 19.3896 24.8103L19.3593 24.3839L18.7469 24.2234C17.8967 23.9977 17.5576 23.8271 17.0717 23.3656C15.8926 22.252 14.9107 20.4912 14.5818 18.9211C14.5362 18.7004 14.4957 18.284 14.4957 17.9931C14.4957 17.1854 14.7083 16.6336 15.1891 16.1922C15.5383 15.8762 15.8217 15.7608 16.2822 15.7608C16.6213 15.7608 16.7074 15.7809 17.0161 15.9364C17.345 16.1019 17.4007 16.1571 18.0384 16.9647C18.8937 18.0483 19.4757 18.7054 19.7945 18.9562C20.0273 19.1418 20.0475 19.1468 20.1133 19.0616C20.1488 19.0114 20.3866 18.57 20.6346 18.0784C21.3128 16.7591 21.581 16.448 22.3098 16.117C22.7096 15.9314 22.7905 15.8661 23.0993 15.4046C23.3523 15.0284 23.6054 14.8027 23.9697 14.6371C24.2177 14.5268 24.324 14.5117 24.906 14.4967C25.3311 14.4917 25.6449 14.5067 25.7917 14.5519ZM24.5669 16.1471C24.5214 16.1822 24.41 16.3377 24.3088 16.4932C23.9596 17.045 23.6205 17.341 23.1043 17.5416C22.9525 17.6018 22.7652 17.7071 22.6893 17.7824C22.6134 17.8576 22.3199 18.3643 22.0415 18.9111C21.4848 20.0197 21.3381 20.2454 21.0395 20.5163C20.7713 20.7571 20.5739 20.8524 20.2803 20.8875C19.5111 20.9778 18.6001 20.2454 17.0363 18.2991C16.6365 17.8025 16.2924 17.3911 16.2721 17.3911C16.2013 17.3911 16.1254 17.7172 16.1254 18.0232C16.1254 19.1268 16.9199 20.8524 17.9473 21.971C18.3572 22.4175 18.5596 22.5228 19.3238 22.7034C20.336 22.9442 20.7561 23.2151 20.9079 23.7318C20.9484 23.8722 21.0142 24.5043 21.0597 25.1313C21.1002 25.7584 21.1862 26.6413 21.252 27.0877C21.4089 28.2214 21.4039 28.5726 21.2166 28.9438C20.9484 29.4906 20.2753 30.1026 18.9797 30.9854C17.8714 31.7429 17.4159 32.3248 17.1628 33.313C17.0161 33.8799 16.9098 34.7828 16.9604 35.0386C17.0059 35.2945 17.0616 35.3497 17.2337 35.2995C17.5424 35.2142 17.755 35.0487 18.6558 34.1758C19.668 33.1926 20.2247 32.7763 20.8877 32.5054C21.4342 32.2746 22.0112 32.1743 22.5982 32.1994C23.0183 32.2144 23.1347 32.2395 23.4383 32.38C23.7369 32.5204 23.8888 32.6408 24.3847 33.1425C24.7086 33.4735 24.987 33.7444 25.0072 33.7444C25.0275 33.7444 25.3058 33.4735 25.6297 33.1425C26.1257 32.6408 26.2775 32.5204 26.5761 32.38C26.8797 32.2395 26.9961 32.2144 27.4162 32.1994C27.9982 32.1743 28.5802 32.2746 29.1167 32.4954C29.7847 32.7713 30.3465 33.1926 31.3586 34.1708C32.2595 35.0487 32.472 35.2142 32.7807 35.2995C32.9528 35.3497 33.0085 35.2945 33.054 35.0386C33.1046 34.7828 32.9984 33.8799 32.8516 33.313C32.5986 32.3248 32.1431 31.7429 31.0347 30.9854C29.7392 30.1026 29.0661 29.4906 28.7978 28.9438C28.6106 28.5726 28.6055 28.2214 28.7624 27.0877C28.8282 26.6413 28.9142 25.7584 28.9547 25.1313C29.0458 23.797 29.1015 23.5512 29.3849 23.2703C29.6582 23.0044 29.9163 22.889 30.6855 22.7034C31.4649 22.5178 31.6572 22.4125 32.0672 21.971C33.0945 20.8524 33.8891 19.1268 33.8891 18.0232C33.8891 17.7172 33.8132 17.3911 33.7423 17.3911C33.7221 17.3911 33.3779 17.8025 32.9781 18.2991C31.4143 20.2454 30.5033 20.9778 29.7341 20.8875C29.4406 20.8524 29.2432 20.7571 28.975 20.5163C28.6764 20.2454 28.5296 20.0197 27.9729 18.9111C27.6946 18.3643 27.401 17.8576 27.3251 17.7824C27.2492 17.7071 27.0619 17.6018 26.9101 17.5416C26.3939 17.341 26.0548 17.045 25.7056 16.4932C25.6044 16.3377 25.4931 16.1822 25.4475 16.1471C25.402 16.1119 25.2198 16.0869 25.0072 16.0869C24.7947 16.0869 24.6125 16.1119 24.5669 16.1471Z" fill="white"/>
</svg>
